<mxfile host="app.diagrams.net" modified="2022-09-08T02:13:05.864Z" agent="5.0 (Macintosh; Intel Mac OS X 10_15_7) AppleWebKit/537.36 (KHTML, like Gecko) Chrome/104.0.0.0 Safari/537.36" etag="fuVg8Lk0YSjQIsIN_Kpe" version="20.2.8" type="github">
  <diagram id="RVOYY2jHYFJpSixvRcNV" name="ページ1">
    <mxGraphModel dx="396" dy="683" grid="1" gridSize="10" guides="1" tooltips="1" connect="1" arrows="1" fold="1" page="1" pageScale="1" pageWidth="827" pageHeight="1169" math="0" shadow="0">
      <root>
        <mxCell id="0" />
        <mxCell id="1" parent="0" />
        <mxCell id="x2RMZ4j2eRnDtGqMUtwS-1" value="開始" style="rounded=1;whiteSpace=wrap;html=1;" vertex="1" parent="1">
          <mxGeometry x="140" y="60" width="120" height="60" as="geometry" />
        </mxCell>
        <mxCell id="x2RMZ4j2eRnDtGqMUtwS-2" value="整数1 &amp;lt; 整数2" style="rhombus;whiteSpace=wrap;html=1;" vertex="1" parent="1">
          <mxGeometry x="140" y="180" width="120" height="80" as="geometry" />
        </mxCell>
        <mxCell id="x2RMZ4j2eRnDtGqMUtwS-3" value="" style="endArrow=classic;html=1;rounded=0;exitX=0.5;exitY=1;exitDx=0;exitDy=0;entryX=0.5;entryY=0;entryDx=0;entryDy=0;" edge="1" parent="1" source="x2RMZ4j2eRnDtGqMUtwS-1" target="x2RMZ4j2eRnDtGqMUtwS-2">
          <mxGeometry width="50" height="50" relative="1" as="geometry">
            <mxPoint x="180" y="380" as="sourcePoint" />
            <mxPoint x="230" y="330" as="targetPoint" />
          </mxGeometry>
        </mxCell>
        <mxCell id="x2RMZ4j2eRnDtGqMUtwS-4" value="整数1を分子に入れる&lt;br&gt;整数2を分母に入れる" style="rounded=0;whiteSpace=wrap;html=1;" vertex="1" parent="1">
          <mxGeometry x="10" y="320" width="120" height="60" as="geometry" />
        </mxCell>
        <mxCell id="x2RMZ4j2eRnDtGqMUtwS-5" value="整数1を分母に入れる&lt;br&gt;整数 2を分子に入れる" style="rounded=0;whiteSpace=wrap;html=1;" vertex="1" parent="1">
          <mxGeometry x="260" y="320" width="120" height="60" as="geometry" />
        </mxCell>
        <mxCell id="x2RMZ4j2eRnDtGqMUtwS-6" value="" style="endArrow=classic;html=1;rounded=0;exitX=0;exitY=0.5;exitDx=0;exitDy=0;entryX=0.5;entryY=0;entryDx=0;entryDy=0;" edge="1" parent="1" source="x2RMZ4j2eRnDtGqMUtwS-2" target="x2RMZ4j2eRnDtGqMUtwS-4">
          <mxGeometry width="50" height="50" relative="1" as="geometry">
            <mxPoint x="180" y="410" as="sourcePoint" />
            <mxPoint x="230" y="360" as="targetPoint" />
            <Array as="points">
              <mxPoint x="70" y="220" />
            </Array>
          </mxGeometry>
        </mxCell>
        <mxCell id="x2RMZ4j2eRnDtGqMUtwS-7" value="NO" style="text;html=1;align=center;verticalAlign=middle;resizable=0;points=[];autosize=1;strokeColor=none;fillColor=none;" vertex="1" parent="1">
          <mxGeometry x="90" y="215" width="40" height="30" as="geometry" />
        </mxCell>
        <mxCell id="x2RMZ4j2eRnDtGqMUtwS-8" value="" style="endArrow=classic;html=1;rounded=0;exitX=1;exitY=0.5;exitDx=0;exitDy=0;entryX=0.5;entryY=0;entryDx=0;entryDy=0;" edge="1" parent="1" source="x2RMZ4j2eRnDtGqMUtwS-2" target="x2RMZ4j2eRnDtGqMUtwS-5">
          <mxGeometry width="50" height="50" relative="1" as="geometry">
            <mxPoint x="180" y="410" as="sourcePoint" />
            <mxPoint x="230" y="360" as="targetPoint" />
            <Array as="points">
              <mxPoint x="320" y="220" />
            </Array>
          </mxGeometry>
        </mxCell>
        <mxCell id="x2RMZ4j2eRnDtGqMUtwS-9" value="YES" style="text;html=1;align=center;verticalAlign=middle;resizable=0;points=[];autosize=1;strokeColor=none;fillColor=none;" vertex="1" parent="1">
          <mxGeometry x="235" y="225" width="50" height="30" as="geometry" />
        </mxCell>
        <mxCell id="x2RMZ4j2eRnDtGqMUtwS-10" value="分子/分母をし、余りを求める" style="rounded=0;whiteSpace=wrap;html=1;" vertex="1" parent="1">
          <mxGeometry x="105" y="440" width="190" height="60" as="geometry" />
        </mxCell>
        <mxCell id="x2RMZ4j2eRnDtGqMUtwS-11" value="" style="endArrow=classic;html=1;rounded=0;exitX=0.5;exitY=1;exitDx=0;exitDy=0;entryX=0.5;entryY=0;entryDx=0;entryDy=0;" edge="1" parent="1" source="x2RMZ4j2eRnDtGqMUtwS-4" target="x2RMZ4j2eRnDtGqMUtwS-10">
          <mxGeometry width="50" height="50" relative="1" as="geometry">
            <mxPoint x="180" y="400" as="sourcePoint" />
            <mxPoint x="230" y="350" as="targetPoint" />
            <Array as="points">
              <mxPoint x="70" y="420" />
              <mxPoint x="200" y="420" />
            </Array>
          </mxGeometry>
        </mxCell>
        <mxCell id="x2RMZ4j2eRnDtGqMUtwS-12" value="" style="endArrow=classic;html=1;rounded=0;exitX=0.5;exitY=1;exitDx=0;exitDy=0;" edge="1" parent="1" source="x2RMZ4j2eRnDtGqMUtwS-5">
          <mxGeometry width="50" height="50" relative="1" as="geometry">
            <mxPoint x="180" y="400" as="sourcePoint" />
            <mxPoint x="200" y="440" as="targetPoint" />
            <Array as="points">
              <mxPoint x="320" y="420" />
              <mxPoint x="200" y="420" />
            </Array>
          </mxGeometry>
        </mxCell>
        <mxCell id="x2RMZ4j2eRnDtGqMUtwS-13" value="余りが０か？" style="rhombus;whiteSpace=wrap;html=1;" vertex="1" parent="1">
          <mxGeometry x="102.5" y="560" width="195" height="90" as="geometry" />
        </mxCell>
        <mxCell id="x2RMZ4j2eRnDtGqMUtwS-14" value="" style="endArrow=classic;html=1;rounded=0;exitX=0.5;exitY=1;exitDx=0;exitDy=0;entryX=0.5;entryY=0;entryDx=0;entryDy=0;" edge="1" parent="1" source="x2RMZ4j2eRnDtGqMUtwS-10" target="x2RMZ4j2eRnDtGqMUtwS-13">
          <mxGeometry width="50" height="50" relative="1" as="geometry">
            <mxPoint x="180" y="740" as="sourcePoint" />
            <mxPoint x="230" y="690" as="targetPoint" />
          </mxGeometry>
        </mxCell>
        <mxCell id="x2RMZ4j2eRnDtGqMUtwS-15" value="分母を分子に入れる&lt;br&gt;余りを分母に入れる" style="rounded=0;whiteSpace=wrap;html=1;" vertex="1" parent="1">
          <mxGeometry x="125" y="720" width="150" height="60" as="geometry" />
        </mxCell>
        <mxCell id="x2RMZ4j2eRnDtGqMUtwS-16" value="分子/分母をし、余りを求める" style="rounded=0;whiteSpace=wrap;html=1;" vertex="1" parent="1">
          <mxGeometry x="117.5" y="830" width="165" height="60" as="geometry" />
        </mxCell>
        <mxCell id="x2RMZ4j2eRnDtGqMUtwS-17" value="" style="endArrow=classic;html=1;rounded=0;exitX=0.5;exitY=1;exitDx=0;exitDy=0;entryX=0.5;entryY=0;entryDx=0;entryDy=0;" edge="1" parent="1" source="x2RMZ4j2eRnDtGqMUtwS-13" target="x2RMZ4j2eRnDtGqMUtwS-15">
          <mxGeometry width="50" height="50" relative="1" as="geometry">
            <mxPoint x="180" y="730" as="sourcePoint" />
            <mxPoint x="230" y="680" as="targetPoint" />
          </mxGeometry>
        </mxCell>
        <mxCell id="x2RMZ4j2eRnDtGqMUtwS-18" value="" style="endArrow=classic;html=1;rounded=0;entryX=0.5;entryY=0;entryDx=0;entryDy=0;" edge="1" parent="1" source="x2RMZ4j2eRnDtGqMUtwS-15" target="x2RMZ4j2eRnDtGqMUtwS-16">
          <mxGeometry width="50" height="50" relative="1" as="geometry">
            <mxPoint x="180" y="730" as="sourcePoint" />
            <mxPoint x="230" y="680" as="targetPoint" />
          </mxGeometry>
        </mxCell>
        <mxCell id="x2RMZ4j2eRnDtGqMUtwS-19" value="" style="endArrow=classic;html=1;rounded=0;exitX=0.5;exitY=1;exitDx=0;exitDy=0;entryX=0;entryY=0.5;entryDx=0;entryDy=0;" edge="1" parent="1" source="x2RMZ4j2eRnDtGqMUtwS-16" target="x2RMZ4j2eRnDtGqMUtwS-13">
          <mxGeometry width="50" height="50" relative="1" as="geometry">
            <mxPoint x="180" y="730" as="sourcePoint" />
            <mxPoint x="230" y="680" as="targetPoint" />
            <Array as="points">
              <mxPoint x="200" y="920" />
              <mxPoint x="40" y="920" />
              <mxPoint x="40" y="605" />
            </Array>
          </mxGeometry>
        </mxCell>
        <mxCell id="x2RMZ4j2eRnDtGqMUtwS-20" value="NO" style="text;html=1;align=center;verticalAlign=middle;resizable=0;points=[];autosize=1;strokeColor=none;fillColor=none;" vertex="1" parent="1">
          <mxGeometry x="150" y="635" width="40" height="30" as="geometry" />
        </mxCell>
        <mxCell id="x2RMZ4j2eRnDtGqMUtwS-21" value="分母に入っている数が整数1と整数2の最大公約数になる" style="rounded=0;whiteSpace=wrap;html=1;" vertex="1" parent="1">
          <mxGeometry x="117.5" y="1000" width="170" height="60" as="geometry" />
        </mxCell>
        <mxCell id="x2RMZ4j2eRnDtGqMUtwS-22" value="" style="endArrow=classic;html=1;rounded=0;exitX=1;exitY=0.5;exitDx=0;exitDy=0;entryX=0.5;entryY=0;entryDx=0;entryDy=0;" edge="1" parent="1" source="x2RMZ4j2eRnDtGqMUtwS-13" target="x2RMZ4j2eRnDtGqMUtwS-21">
          <mxGeometry width="50" height="50" relative="1" as="geometry">
            <mxPoint x="180" y="710" as="sourcePoint" />
            <mxPoint x="230" y="660" as="targetPoint" />
            <Array as="points">
              <mxPoint x="360" y="605" />
              <mxPoint x="360" y="960" />
              <mxPoint x="203" y="960" />
            </Array>
          </mxGeometry>
        </mxCell>
        <mxCell id="x2RMZ4j2eRnDtGqMUtwS-23" value="YES" style="text;html=1;align=center;verticalAlign=middle;resizable=0;points=[];autosize=1;strokeColor=none;fillColor=none;" vertex="1" parent="1">
          <mxGeometry x="265" y="605" width="50" height="30" as="geometry" />
        </mxCell>
        <mxCell id="x2RMZ4j2eRnDtGqMUtwS-24" value="終了" style="rounded=1;whiteSpace=wrap;html=1;" vertex="1" parent="1">
          <mxGeometry x="142.5" y="1109" width="120" height="60" as="geometry" />
        </mxCell>
        <mxCell id="x2RMZ4j2eRnDtGqMUtwS-25" value="" style="endArrow=classic;html=1;rounded=0;exitX=0.5;exitY=1;exitDx=0;exitDy=0;entryX=0.5;entryY=0;entryDx=0;entryDy=0;" edge="1" parent="1" source="x2RMZ4j2eRnDtGqMUtwS-21" target="x2RMZ4j2eRnDtGqMUtwS-24">
          <mxGeometry width="50" height="50" relative="1" as="geometry">
            <mxPoint x="180" y="840" as="sourcePoint" />
            <mxPoint x="230" y="790" as="targetPoint" />
          </mxGeometry>
        </mxCell>
      </root>
    </mxGraphModel>
  </diagram>
</mxfile>
